<svg width="22" height="22" viewBox="0 0 22 22" fill="none" xmlns="http://www.w3.org/2000/svg">
<path d="M13 8H12.25C12.25 8.41421 12.5858 8.75 13 8.75V8ZM13 4H13.75H13ZM10 1V0.25C9.70361 0.25 9.43502 0.42455 9.31464 0.695396L10 1ZM6 10L5.31464 9.6954C5.27202 9.79129 5.25 9.89506 5.25 10H6ZM6 21H5.25C5.25 21.4142 5.58579 21.75 6 21.75V21ZM17.28 21L17.2885 20.25H17.28V21ZM19.28 19.3L18.5387 19.1863L18.5385 19.1875L19.28 19.3ZM20.66 10.3L21.4013 10.4137L21.4015 10.4125L20.66 10.3ZM18.66 8V8.75005L18.6685 8.74995L18.66 8ZM6 21V21.75C6.41421 21.75 6.75 21.4142 6.75 21H6ZM6 10H6.75C6.75 9.58579 6.41421 9.25 6 9.25V10ZM13.75 8V4H12.25V8H13.75ZM13.75 4C13.75 1.92893 12.0711 0.25 10 0.25V1.75C11.2426 1.75 12.25 2.75736 12.25 4H13.75ZM9.31464 0.695396L5.31464 9.6954L6.68536 10.3046L10.6854 1.3046L9.31464 0.695396ZM5.25 10V21H6.75V10H5.25ZM6 21.75H17.28V20.25H6V21.75ZM17.2715 21.75C18.6428 21.7655 19.8159 20.7683 20.0215 19.4125L18.5385 19.1875C18.445 19.8038 17.9118 20.2571 17.2885 20.25L17.2715 21.75ZM20.0213 19.4137L21.4013 10.4137L19.9187 10.1863L18.5387 19.1863L20.0213 19.4137ZM21.4015 10.4125C21.5226 9.61485 21.2872 8.80422 20.7578 8.19538L19.6259 9.17965C19.8666 9.4564 19.9735 9.82486 19.9185 10.1875L21.4015 10.4125ZM20.7578 8.19538C20.2284 7.58654 19.4583 7.24091 18.6515 7.25005L18.6685 8.74995C19.0352 8.7458 19.3853 8.9029 19.6259 9.17965L20.7578 8.19538ZM18.66 7.25H13V8.75H18.66V7.25ZM6 20.25H3V21.75H6V20.25ZM3 20.25C2.30964 20.25 1.75 19.6904 1.75 19H0.25C0.25 20.5188 1.48122 21.75 3 21.75V20.25ZM1.75 19V12H0.25V19H1.75ZM1.75 12C1.75 11.3096 2.30964 10.75 3 10.75V9.25C1.48122 9.25 0.25 10.4812 0.25 12H1.75ZM3 10.75H6V9.25H3V10.75ZM5.25 10V21H6.75V10H5.25Z" fill="#675F72"/>
</svg>
